<?xml version="1.0" standalone="no"?>
<!DOCTYPE svg PUBLIC "-//W3C//DTD SVG 20010904//EN"
 "http://www.w3.org/TR/2001/REC-SVG-20010904/DTD/svg10.dtd">
<svg version="1.0" xmlns="http://www.w3.org/2000/svg"
 width="120.000000pt" height="120.000000pt" viewBox="0 0 120.000000 120.000000"
 preserveAspectRatio="xMidYMid meet">

<g transform="translate(0.000000,120.000000) scale(0.100000,-0.100000)"
fill="#000000" stroke="none">
<path d="M320 954 c-35 -15 -80 -51 -80 -65 0 -4 26 4 58 17 36 15 77 24 113
24 61 0 75 6 58 27 -15 18 -105 16 -149 -3z"/>
<path d="M732 958 c-22 -22 -12 -28 51 -28 42 0 81 -8 120 -24 61 -25 71 -22
34 12 -49 46 -175 70 -205 40z"/>
<path d="M407 776 c-4 -9 -13 -16 -21 -16 -9 0 -23 -11 -32 -25 -21 -33 -6
-71 31 -81 22 -5 25 -11 25 -49 0 -55 -13 -63 -45 -29 -17 18 -25 22 -25 12 0
-17 31 -48 48 -48 6 0 15 -7 20 -16 8 -15 10 -15 15 0 4 9 13 16 21 16 24 0
46 29 46 61 0 23 -8 34 -35 50 -29 17 -35 27 -35 54 0 43 14 51 40 25 12 -12
24 -19 27 -16 9 8 -27 46 -43 46 -7 0 -17 7 -22 16 -8 15 -10 15 -15 0z m3
-66 c0 -41 -14 -52 -38 -28 -16 16 -15 33 4 52 25 25 34 19 34 -24z m41 -80
c24 -14 25 -56 0 -69 -25 -14 -31 -5 -31 41 0 41 2 43 31 28z"/>
<path d="M770 781 c0 -6 -12 -16 -27 -23 -19 -9 -29 -22 -31 -41 -4 -30 21
-67 45 -67 9 0 13 -15 13 -50 0 -48 -1 -50 -21 -40 -11 6 -23 18 -26 26 -7 18
-23 18 -23 1 0 -19 33 -47 53 -47 9 0 17 -8 17 -17 1 -16 2 -17 13 -2 7 9 22
19 35 23 33 11 47 52 28 82 -9 12 -25 25 -36 29 -16 5 -20 15 -20 51 0 48 11
56 34 22 9 -12 18 -19 22 -16 9 10 -15 48 -32 48 -8 0 -17 7 -20 15 -7 17 -24
21 -24 6z m0 -72 c0 -33 -3 -40 -16 -35 -9 3 -18 6 -20 6 -9 0 -3 47 8 58 21
21 28 13 28 -29z m54 -88 c19 -21 13 -47 -15 -62 -17 -9 -19 -6 -19 36 0 49 8
55 34 26z"/>
<path d="M1132 580 c0 -14 2 -19 5 -12 2 6 2 18 0 25 -3 6 -5 1 -5 -13z"/>
<path d="M70 539 c0 -29 32 -124 63 -182 59 -112 150 -184 327 -261 19 -9 48
-26 63 -38 39 -32 115 -32 154 0 15 12 44 29 63 38 197 85 272 149 339 286 22
45 43 101 46 123 5 36 4 35 -13 -15 -40 -117 -109 -219 -194 -282 -54 -41
-137 -83 -146 -73 -3 2 -9 26 -13 52 -7 45 -5 49 19 68 90 66 152 146 139 177
-5 14 -12 14 -59 1 -103 -27 -252 -37 -372 -24 -61 6 -135 17 -163 25 -30 8
-55 10 -58 5 -10 -15 25 -76 66 -119 33 -33 110 -90 123 -90 2 0 7 21 11 47 9
64 19 73 76 73 40 0 49 -3 49 -18 0 -9 -10 -22 -22 -27 -18 -8 -23 -18 -23
-45 0 -27 5 -37 23 -45 17 -8 22 -18 22 -47 0 -41 -21 -52 -39 -21 -5 10 -13
15 -17 10 -9 -9 25 -47 42 -47 7 0 14 -6 16 -12 3 -9 9 -8 22 5 10 9 21 17 26
17 16 0 31 40 25 61 -4 11 -18 24 -31 29 -19 8 -24 17 -24 45 0 40 5 42 33 18
19 -17 19 -17 16 2 -2 11 -14 24 -27 30 -12 5 -22 17 -22 27 0 14 9 17 48 16
27 0 55 -4 63 -9 21 -13 25 -165 6 -212 -29 -68 -113 -96 -192 -63 -39 17 -75
77 -75 128 0 25 -3 29 -10 18 -5 -8 -10 -27 -10 -42 0 -15 -4 -29 -10 -33 -17
-10 -132 56 -187 108 -66 63 -119 147 -149 241 -13 39 -23 64 -24 55z m520
-279 c0 -31 -16 -41 -26 -15 -8 19 2 45 16 45 5 0 10 -13 10 -30z m53 -82 c13
-20 2 -48 -18 -48 -11 0 -15 10 -15 36 0 37 14 42 33 12z"/>
</g>
</svg>
